<?xml version="1.0" encoding="UTF-8" standalone="no"?><svg xmlns="http://www.w3.org/2000/svg" xmlns:xlink="http://www.w3.org/1999/xlink" contentStyleType="text/css" height="571px" preserveAspectRatio="none" style="width:1586px;height:571px;background:#FFFFFF;" version="1.1" viewBox="0 0 1586 571" width="1586px" zoomAndPan="magnify"><defs/><g><g id="elem_AttributeSource"><rect codeLine="3" fill="#F1F1F1" height="64.2969" id="AttributeSource" rx="2.5" ry="2.5" style="stroke:#181818;stroke-width:0.5;" width="303" x="305" y="15.5"/><ellipse cx="398.25" cy="31.5" fill="#ADD1B2" rx="11" ry="11" style="stroke:#181818;stroke-width:1.0;"/><path d="M401.2188,37.1406 Q400.6406,37.4375 400,37.5781 Q399.3594,37.7344 398.6563,37.7344 Q396.1563,37.7344 394.8281,36.0938 Q393.5156,34.4375 393.5156,31.3125 Q393.5156,28.1875 394.8281,26.5313 Q396.1563,24.875 398.6563,24.875 Q399.3594,24.875 400,25.0313 Q400.6563,25.1875 401.2188,25.4844 L401.2188,28.2031 Q400.5938,27.625 400,27.3594 Q399.4063,27.0781 398.7813,27.0781 Q397.4375,27.0781 396.75,28.1563 Q396.0625,29.2188 396.0625,31.3125 Q396.0625,33.4063 396.75,34.4844 Q397.4375,35.5469 398.7813,35.5469 Q399.4063,35.5469 400,35.2813 Q400.5938,35 401.2188,34.4219 L401.2188,37.1406 Z " fill="#000000"/><text fill="#000000" font-family="sans-serif" font-size="14" lengthAdjust="spacing" textLength="108" x="418.75" y="36.3467">AttributeSource</text><line style="stroke:#181818;stroke-width:0.5;" x1="306" x2="607" y1="47.5" y2="47.5"/><line style="stroke:#181818;stroke-width:0.5;" x1="306" x2="607" y1="55.5" y2="55.5"/><ellipse cx="316" cy="69.1484" fill="#84BE84" rx="3" ry="3" style="stroke:#038048;stroke-width:1.0;"/><text fill="#000000" font-family="sans-serif" font-size="14" lengthAdjust="spacing" textLength="277" x="325" y="72.4951">AttributeSource(AttributeFactory factory)</text></g><g id="elem_Attribute"><rect codeLine="8" fill="#F1F1F1" height="48" id="Attribute" rx="2.5" ry="2.5" style="stroke:#181818;stroke-width:0.5;" width="91" x="919" y="23.5"/><ellipse cx="934" cy="39.5" fill="#B4A7E5" rx="11" ry="11" style="stroke:#181818;stroke-width:1.0;"/><path d="M929.9219,35.2656 L929.9219,33.1094 L937.3125,33.1094 L937.3125,35.2656 L934.8438,35.2656 L934.8438,43.3438 L937.3125,43.3438 L937.3125,45.5 L929.9219,45.5 L929.9219,43.3438 L932.3906,43.3438 L932.3906,35.2656 L929.9219,35.2656 Z " fill="#000000"/><text fill="#000000" font-family="sans-serif" font-size="14" font-style="italic" lengthAdjust="spacing" textLength="59" x="948" y="44.3467">Attribute</text><line style="stroke:#181818;stroke-width:0.5;" x1="920" x2="1009" y1="55.5" y2="55.5"/><line style="stroke:#181818;stroke-width:0.5;" x1="920" x2="1009" y1="63.5" y2="63.5"/></g><g id="elem_CharTermAttribute"><rect codeLine="11" fill="#F1F1F1" height="48" id="CharTermAttribute" rx="2.5" ry="2.5" style="stroke:#181818;stroke-width:0.5;" width="159" x="558" y="157.5"/><ellipse cx="573" cy="173.5" fill="#B4A7E5" rx="11" ry="11" style="stroke:#181818;stroke-width:1.0;"/><path d="M568.9219,169.2656 L568.9219,167.1094 L576.3125,167.1094 L576.3125,169.2656 L573.8438,169.2656 L573.8438,177.3438 L576.3125,177.3438 L576.3125,179.5 L568.9219,179.5 L568.9219,177.3438 L571.3906,177.3438 L571.3906,169.2656 L568.9219,169.2656 Z " fill="#000000"/><text fill="#000000" font-family="sans-serif" font-size="14" font-style="italic" lengthAdjust="spacing" textLength="127" x="587" y="178.3467">CharTermAttribute</text><line style="stroke:#181818;stroke-width:0.5;" x1="559" x2="716" y1="189.5" y2="189.5"/><line style="stroke:#181818;stroke-width:0.5;" x1="559" x2="716" y1="197.5" y2="197.5"/></g><g id="elem_OffsetAttribute"><rect codeLine="12" fill="#F1F1F1" height="48" id="OffsetAttribute" rx="2.5" ry="2.5" style="stroke:#181818;stroke-width:0.5;" width="132" x="752.5" y="157.5"/><ellipse cx="767.5" cy="173.5" fill="#B4A7E5" rx="11" ry="11" style="stroke:#181818;stroke-width:1.0;"/><path d="M763.4219,169.2656 L763.4219,167.1094 L770.8125,167.1094 L770.8125,169.2656 L768.3438,169.2656 L768.3438,177.3438 L770.8125,177.3438 L770.8125,179.5 L763.4219,179.5 L763.4219,177.3438 L765.8906,177.3438 L765.8906,169.2656 L763.4219,169.2656 Z " fill="#000000"/><text fill="#000000" font-family="sans-serif" font-size="14" font-style="italic" lengthAdjust="spacing" textLength="100" x="781.5" y="178.3467">OffsetAttribute</text><line style="stroke:#181818;stroke-width:0.5;" x1="753.5" x2="883.5" y1="189.5" y2="189.5"/><line style="stroke:#181818;stroke-width:0.5;" x1="753.5" x2="883.5" y1="197.5" y2="197.5"/></g><g id="elem_PositionLengthAttribute"><rect codeLine="13" fill="#F1F1F1" height="48" id="PositionLengthAttribute" rx="2.5" ry="2.5" style="stroke:#181818;stroke-width:0.5;" width="194" x="919.5" y="157.5"/><ellipse cx="934.5" cy="173.5" fill="#B4A7E5" rx="11" ry="11" style="stroke:#181818;stroke-width:1.0;"/><path d="M930.4219,169.2656 L930.4219,167.1094 L937.8125,167.1094 L937.8125,169.2656 L935.3438,169.2656 L935.3438,177.3438 L937.8125,177.3438 L937.8125,179.5 L930.4219,179.5 L930.4219,177.3438 L932.8906,177.3438 L932.8906,169.2656 L930.4219,169.2656 Z " fill="#000000"/><text fill="#000000" font-family="sans-serif" font-size="14" font-style="italic" lengthAdjust="spacing" textLength="162" x="948.5" y="178.3467">PositionLengthAttribute</text><line style="stroke:#181818;stroke-width:0.5;" x1="920.5" x2="1112.5" y1="189.5" y2="189.5"/><line style="stroke:#181818;stroke-width:0.5;" x1="920.5" x2="1112.5" y1="197.5" y2="197.5"/></g><g id="elem_PayloadAttribute"><rect codeLine="14" fill="#F1F1F1" height="48" id="PayloadAttribute" rx="2.5" ry="2.5" style="stroke:#181818;stroke-width:0.5;" width="144" x="1148.5" y="157.5"/><ellipse cx="1163.5" cy="173.5" fill="#B4A7E5" rx="11" ry="11" style="stroke:#181818;stroke-width:1.0;"/><path d="M1159.4219,169.2656 L1159.4219,167.1094 L1166.8125,167.1094 L1166.8125,169.2656 L1164.3438,169.2656 L1164.3438,177.3438 L1166.8125,177.3438 L1166.8125,179.5 L1159.4219,179.5 L1159.4219,177.3438 L1161.8906,177.3438 L1161.8906,169.2656 L1159.4219,169.2656 Z " fill="#000000"/><text fill="#000000" font-family="sans-serif" font-size="14" font-style="italic" lengthAdjust="spacing" textLength="112" x="1177.5" y="178.3467">PayloadAttribute</text><line style="stroke:#181818;stroke-width:0.5;" x1="1149.5" x2="1291.5" y1="189.5" y2="189.5"/><line style="stroke:#181818;stroke-width:0.5;" x1="1149.5" x2="1291.5" y1="197.5" y2="197.5"/></g><g id="elem_PositionIncrementAttribute"><rect codeLine="15" fill="#F1F1F1" height="48" id="PositionIncrementAttribute" rx="2.5" ry="2.5" style="stroke:#181818;stroke-width:0.5;" width="216" x="1327.5" y="157.5"/><ellipse cx="1342.5" cy="173.5" fill="#B4A7E5" rx="11" ry="11" style="stroke:#181818;stroke-width:1.0;"/><path d="M1338.4219,169.2656 L1338.4219,167.1094 L1345.8125,167.1094 L1345.8125,169.2656 L1343.3438,169.2656 L1343.3438,177.3438 L1345.8125,177.3438 L1345.8125,179.5 L1338.4219,179.5 L1338.4219,177.3438 L1340.8906,177.3438 L1340.8906,169.2656 L1338.4219,169.2656 Z " fill="#000000"/><text fill="#000000" font-family="sans-serif" font-size="14" font-style="italic" lengthAdjust="spacing" textLength="184" x="1356.5" y="178.3467">PositionIncrementAttribute</text><line style="stroke:#181818;stroke-width:0.5;" x1="1328.5" x2="1542.5" y1="189.5" y2="189.5"/><line style="stroke:#181818;stroke-width:0.5;" x1="1328.5" x2="1542.5" y1="197.5" y2="197.5"/></g><g id="elem_TokenStream"><rect codeLine="19" fill="#F1F1F1" height="64.2969" id="TokenStream" rx="2.5" ry="2.5" style="stroke:#181818;stroke-width:0.5;" width="210" x="194.5" y="149.5"/><ellipse cx="248.75" cy="165.5" fill="#A9DCDF" rx="11" ry="11" style="stroke:#181818;stroke-width:1.0;"/><path d="M248.8594,160.8438 L247.7031,165.9219 L250.0313,165.9219 L248.8594,160.8438 Z M247.375,158.6094 L250.3594,158.6094 L253.7188,171 L251.2656,171 L250.5,167.9375 L247.2188,167.9375 L246.4688,171 L244.0313,171 L247.375,158.6094 Z " fill="#000000"/><text fill="#000000" font-family="sans-serif" font-size="14" font-style="italic" lengthAdjust="spacing" textLength="93" x="269.25" y="170.3467">TokenStream</text><line style="stroke:#181818;stroke-width:0.5;" x1="195.5" x2="403.5" y1="181.5" y2="181.5"/><line style="stroke:#181818;stroke-width:0.5;" x1="195.5" x2="403.5" y1="189.5" y2="189.5"/><ellipse cx="205.5" cy="203.1484" fill="#84BE84" rx="3" ry="3" style="stroke:#038048;stroke-width:1.0;"/><text fill="#000000" font-family="sans-serif" font-size="14" font-style="italic" lengthAdjust="spacing" textLength="184" x="214.5" y="206.4951">boolean incrementToken()</text></g><g id="elem_Tokenizer"><rect codeLine="24" fill="#F1F1F1" height="64.2969" id="Tokenizer" rx="2.5" ry="2.5" style="stroke:#181818;stroke-width:0.5;" width="115" x="159" y="275"/><ellipse cx="180.3" cy="291" fill="#A9DCDF" rx="11" ry="11" style="stroke:#181818;stroke-width:1.0;"/><path d="M180.4094,286.3438 L179.2531,291.4219 L181.5813,291.4219 L180.4094,286.3438 Z M178.925,284.1094 L181.9094,284.1094 L185.2688,296.5 L182.8156,296.5 L182.05,293.4375 L178.7688,293.4375 L178.0188,296.5 L175.5813,296.5 L178.925,284.1094 Z " fill="#000000"/><text fill="#000000" font-family="sans-serif" font-size="14" font-style="italic" lengthAdjust="spacing" textLength="69" x="195.7" y="295.8467">Tokenizer</text><line style="stroke:#181818;stroke-width:0.5;" x1="160" x2="273" y1="307" y2="307"/><polygon fill="none" points="170,315.6484,174,319.6484,170,323.6484,166,319.6484" style="stroke:#B38D22;stroke-width:1.0;"/><text fill="#000000" font-family="sans-serif" font-size="14" lengthAdjust="spacing" textLength="89" x="179" y="323.9951">Reader input</text><line style="stroke:#181818;stroke-width:0.5;" x1="160" x2="273" y1="331.2969" y2="331.2969"/></g><g id="elem_CharTokenizer"><rect codeLine="27" fill="#F1F1F1" height="48" id="CharTokenizer" rx="2.5" ry="2.5" style="stroke:#181818;stroke-width:0.5;" width="133" x="7" y="403.5"/><ellipse cx="22" cy="419.5" fill="#A9DCDF" rx="11" ry="11" style="stroke:#181818;stroke-width:1.0;"/><path d="M22.1094,414.8438 L20.9531,419.9219 L23.2813,419.9219 L22.1094,414.8438 Z M20.625,412.6094 L23.6094,412.6094 L26.9688,425 L24.5156,425 L23.75,421.9375 L20.4688,421.9375 L19.7188,425 L17.2813,425 L20.625,412.6094 Z " fill="#000000"/><text fill="#000000" font-family="sans-serif" font-size="14" font-style="italic" lengthAdjust="spacing" textLength="101" x="36" y="424.3467">CharTokenizer</text><line style="stroke:#181818;stroke-width:0.5;" x1="8" x2="139" y1="435.5" y2="435.5"/><line style="stroke:#181818;stroke-width:0.5;" x1="8" x2="139" y1="443.5" y2="443.5"/></g><g id="elem_TokenFilter"><rect codeLine="34" fill="#F1F1F1" height="64.2969" id="TokenFilter" rx="2.5" ry="2.5" style="stroke:#181818;stroke-width:0.5;" width="245" x="389" y="275"/><ellipse cx="468.75" cy="291" fill="#A9DCDF" rx="11" ry="11" style="stroke:#181818;stroke-width:1.0;"/><path d="M468.8594,286.3438 L467.7031,291.4219 L470.0313,291.4219 L468.8594,286.3438 Z M467.375,284.1094 L470.3594,284.1094 L473.7188,296.5 L471.2656,296.5 L470.5,293.4375 L467.2188,293.4375 L466.4688,296.5 L464.0313,296.5 L467.375,284.1094 Z " fill="#000000"/><text fill="#000000" font-family="sans-serif" font-size="14" font-style="italic" lengthAdjust="spacing" textLength="77" x="489.25" y="295.8467">TokenFilter</text><line style="stroke:#181818;stroke-width:0.5;" x1="390" x2="633" y1="307" y2="307"/><line style="stroke:#181818;stroke-width:0.5;" x1="390" x2="633" y1="315" y2="315"/><polygon fill="#FFFF44" points="400,323.6484,404,327.6484,400,331.6484,396,327.6484" style="stroke:#B38D22;stroke-width:1.0;"/><text fill="#000000" font-family="sans-serif" font-size="14" lengthAdjust="spacing" textLength="219" x="409" y="331.9951">TokenFilter(TokenStream input)</text></g><g id="elem_LengthFilter"><rect codeLine="35" fill="#F1F1F1" height="48" id="LengthFilter" rx="2.5" ry="2.5" style="stroke:#181818;stroke-width:0.5;" width="113" x="293" y="403.5"/><ellipse cx="308" cy="419.5" fill="#ADD1B2" rx="11" ry="11" style="stroke:#181818;stroke-width:1.0;"/><path d="M310.9688,425.1406 Q310.3906,425.4375 309.75,425.5781 Q309.1094,425.7344 308.4063,425.7344 Q305.9063,425.7344 304.5781,424.0938 Q303.2656,422.4375 303.2656,419.3125 Q303.2656,416.1875 304.5781,414.5313 Q305.9063,412.875 308.4063,412.875 Q309.1094,412.875 309.75,413.0313 Q310.4063,413.1875 310.9688,413.4844 L310.9688,416.2031 Q310.3438,415.625 309.75,415.3594 Q309.1563,415.0781 308.5313,415.0781 Q307.1875,415.0781 306.5,416.1563 Q305.8125,417.2188 305.8125,419.3125 Q305.8125,421.4063 306.5,422.4844 Q307.1875,423.5469 308.5313,423.5469 Q309.1563,423.5469 309.75,423.2813 Q310.3438,423 310.9688,422.4219 L310.9688,425.1406 Z " fill="#000000"/><text fill="#000000" font-family="sans-serif" font-size="14" lengthAdjust="spacing" textLength="81" x="322" y="424.3467">LengthFilter</text><line style="stroke:#181818;stroke-width:0.5;" x1="294" x2="405" y1="435.5" y2="435.5"/><line style="stroke:#181818;stroke-width:0.5;" x1="294" x2="405" y1="443.5" y2="443.5"/></g><g id="elem_LowerCaseFilter"><rect codeLine="36" fill="#F1F1F1" height="48" id="LowerCaseFilter" rx="2.5" ry="2.5" style="stroke:#181818;stroke-width:0.5;" width="141" x="441" y="403.5"/><ellipse cx="456" cy="419.5" fill="#ADD1B2" rx="11" ry="11" style="stroke:#181818;stroke-width:1.0;"/><path d="M458.9688,425.1406 Q458.3906,425.4375 457.75,425.5781 Q457.1094,425.7344 456.4063,425.7344 Q453.9063,425.7344 452.5781,424.0938 Q451.2656,422.4375 451.2656,419.3125 Q451.2656,416.1875 452.5781,414.5313 Q453.9063,412.875 456.4063,412.875 Q457.1094,412.875 457.75,413.0313 Q458.4063,413.1875 458.9688,413.4844 L458.9688,416.2031 Q458.3438,415.625 457.75,415.3594 Q457.1563,415.0781 456.5313,415.0781 Q455.1875,415.0781 454.5,416.1563 Q453.8125,417.2188 453.8125,419.3125 Q453.8125,421.4063 454.5,422.4844 Q455.1875,423.5469 456.5313,423.5469 Q457.1563,423.5469 457.75,423.2813 Q458.3438,423 458.9688,422.4219 L458.9688,425.1406 Z " fill="#000000"/><text fill="#000000" font-family="sans-serif" font-size="14" lengthAdjust="spacing" textLength="109" x="470" y="424.3467">LowerCaseFilter</text><line style="stroke:#181818;stroke-width:0.5;" x1="442" x2="581" y1="435.5" y2="435.5"/><line style="stroke:#181818;stroke-width:0.5;" x1="442" x2="581" y1="443.5" y2="443.5"/></g><g id="elem_FilteringTokenFilter"><rect codeLine="38" fill="#F1F1F1" height="48" id="FilteringTokenFilter" rx="2.5" ry="2.5" style="stroke:#181818;stroke-width:0.5;" width="163" x="617" y="403.5"/><ellipse cx="632" cy="419.5" fill="#A9DCDF" rx="11" ry="11" style="stroke:#181818;stroke-width:1.0;"/><path d="M632.1094,414.8438 L630.9531,419.9219 L633.2813,419.9219 L632.1094,414.8438 Z M630.625,412.6094 L633.6094,412.6094 L636.9688,425 L634.5156,425 L633.75,421.9375 L630.4688,421.9375 L629.7188,425 L627.2813,425 L630.625,412.6094 Z " fill="#000000"/><text fill="#000000" font-family="sans-serif" font-size="14" font-style="italic" lengthAdjust="spacing" textLength="131" x="646" y="424.3467">FilteringTokenFilter</text><line style="stroke:#181818;stroke-width:0.5;" x1="618" x2="779" y1="435.5" y2="435.5"/><line style="stroke:#181818;stroke-width:0.5;" x1="618" x2="779" y1="443.5" y2="443.5"/></g><g id="elem_StopFilter"><rect codeLine="39" fill="#F1F1F1" height="48" id="StopFilter" rx="2.5" ry="2.5" style="stroke:#181818;stroke-width:0.5;" width="97" x="650" y="516"/><ellipse cx="665" cy="532" fill="#ADD1B2" rx="11" ry="11" style="stroke:#181818;stroke-width:1.0;"/><path d="M667.9688,537.6406 Q667.3906,537.9375 666.75,538.0781 Q666.1094,538.2344 665.4063,538.2344 Q662.9063,538.2344 661.5781,536.5938 Q660.2656,534.9375 660.2656,531.8125 Q660.2656,528.6875 661.5781,527.0313 Q662.9063,525.375 665.4063,525.375 Q666.1094,525.375 666.75,525.5313 Q667.4063,525.6875 667.9688,525.9844 L667.9688,528.7031 Q667.3438,528.125 666.75,527.8594 Q666.1563,527.5781 665.5313,527.5781 Q664.1875,527.5781 663.5,528.6563 Q662.8125,529.7188 662.8125,531.8125 Q662.8125,533.9063 663.5,534.9844 Q664.1875,536.0469 665.5313,536.0469 Q666.1563,536.0469 666.75,535.7813 Q667.3438,535.5 667.9688,534.9219 L667.9688,537.6406 Z " fill="#000000"/><text fill="#000000" font-family="sans-serif" font-size="14" lengthAdjust="spacing" textLength="65" x="679" y="536.8467">StopFilter</text><line style="stroke:#181818;stroke-width:0.5;" x1="651" x2="746" y1="548" y2="548"/><line style="stroke:#181818;stroke-width:0.5;" x1="651" x2="746" y1="556" y2="556"/></g><g id="elem_N1"><path d="M815.5,400 L815.5,455.3984 L937.5,455.3984 L937.5,410 L927.5,400 L815.5,400 " fill="#FEFFDD" style="stroke:#181818;stroke-width:0.5;"/><path d="M927.5,400 L927.5,410 L937.5,410 L927.5,400 " fill="#FEFFDD" style="stroke:#181818;stroke-width:1.0;"/><text fill="#000000" font-family="sans-serif" font-size="13" lengthAdjust="spacing" textLength="65" x="821.5" y="417.0669">装饰者模式</text><text fill="#000000" font-family="sans-serif" font-size="13" lengthAdjust="spacing" textLength="101" x="821.5" y="432.1997">对token进行过滤</text><text fill="#000000" font-family="sans-serif" font-size="13" lengthAdjust="spacing" textLength="52" x="821.5" y="447.3325">内容更改</text></g><g id="elem_N3"><path d="M175,407.5 L175,447.7656 A0,0 0 0 0 175,447.7656 L258,447.7656 A0,0 0 0 0 258,447.7656 L258,417.5 L248,407.5 L220.5,407.5 L216.5,339.134 L212.5,407.5 L175,407.5 A0,0 0 0 0 175,407.5 " fill="#FEFFDD" style="stroke:#181818;stroke-width:0.5;"/><path d="M248,407.5 L248,417.5 L258,417.5 L248,407.5 " fill="#FEFFDD" style="stroke:#181818;stroke-width:0.5;"/><text fill="#000000" font-family="sans-serif" font-size="13" lengthAdjust="spacing" textLength="52" x="181" y="424.5669">切割句子</text><text fill="#000000" font-family="sans-serif" font-size="13" lengthAdjust="spacing" textLength="62" x="181" y="439.6997">生成token</text></g><path d="M440,149 L440,172.6992 L398.5,201.6484 L440,180.6992 L440,204.3984 A0,0 0 0 0 440,204.3984 L523,204.3984 A0,0 0 0 0 523,204.3984 L523,159 L513,149 L440,149 A0,0 0 0 0 440,149 " fill="#FEFFDD" style="stroke:#181818;stroke-width:0.5;"/><path d="M513,149 L513,159 L523,159 L513,149 " fill="#FEFFDD" style="stroke:#181818;stroke-width:0.5;"/><text fill="#000000" font-family="sans-serif" font-size="13" lengthAdjust="spacing" textLength="52" x="446" y="166.0669">返回true</text><text fill="#000000" font-family="sans-serif" font-size="13" lengthAdjust="spacing" textLength="52" x="446" y="181.1997">表示生成</text><text fill="#000000" font-family="sans-serif" font-size="13" lengthAdjust="spacing" textLength="62" x="446" y="196.3325">一个token</text><g id="elem_Analyzer"><rect codeLine="54" fill="#F1F1F1" height="80.5938" id="Analyzer" rx="2.5" ry="2.5" style="stroke:#181818;stroke-width:0.5;" width="534" x="1045.5" y="7"/><ellipse cx="1279.25" cy="23" fill="#A9DCDF" rx="11" ry="11" style="stroke:#181818;stroke-width:1.0;"/><path d="M1279.3594,18.3438 L1278.2031,23.4219 L1280.5313,23.4219 L1279.3594,18.3438 Z M1277.875,16.1094 L1280.8594,16.1094 L1284.2188,28.5 L1281.7656,28.5 L1281,25.4375 L1277.7188,25.4375 L1276.9688,28.5 L1274.5313,28.5 L1277.875,16.1094 Z " fill="#000000"/><text fill="#000000" font-family="sans-serif" font-size="14" font-style="italic" lengthAdjust="spacing" textLength="58" x="1299.75" y="27.8467">Analyzer</text><line style="stroke:#181818;stroke-width:0.5;" x1="1046.5" x2="1578.5" y1="39" y2="39"/><line style="stroke:#181818;stroke-width:0.5;" x1="1046.5" x2="1578.5" y1="47" y2="47"/><polygon fill="#FFFF44" points="1056.5,55.6484,1060.5,59.6484,1056.5,63.6484,1052.5,59.6484" style="stroke:#B38D22;stroke-width:1.0;"/><text fill="#000000" font-family="sans-serif" font-size="14" lengthAdjust="spacing" textLength="503" x="1065.5" y="63.9951">abstract TokenStreamComponents createComponents(String fieldName)</text><ellipse cx="1056.5" cy="76.9453" fill="#84BE84" rx="3" ry="3" style="stroke:#038048;stroke-width:1.0;"/><text fill="#000000" font-family="sans-serif" font-size="14" lengthAdjust="spacing" textLength="508" x="1065.5" y="80.292">final TokenStream tokenStream(final String fieldName, final Reader reader)</text></g><g id="link_AttributeSource_Attribute"><path codeLine="2" d="M608.229,47.5 C714.503,47.5 849.453,47.5 918.794,47.5 " fill="none" id="AttributeSource-Attribute" style="stroke:#181818;stroke-width:1.0;"/><polygon fill="#000000" points="740,36.0664,730.9549,33.1275,730.9549,39.0053,740,36.0664" style="stroke:#000000;stroke-width:1.0;"/><text fill="#000000" font-family="sans-serif" font-size="13" lengthAdjust="spacing" textLength="52" x="744" y="40.5669">管理维护</text></g><g id="link_Attribute_CharTermAttribute"><path d="M899.943,74.56 C840.083,98.723 751.866,134.334 694.539,157.475 " fill="none" id="Attribute-backto-CharTermAttribute" style="stroke:#181818;stroke-width:1.0;"/><polygon fill="none" points="897.521,67.988,918.688,66.993,902.762,80.971,897.521,67.988" style="stroke:#181818;stroke-width:1.0;"/></g><g id="link_Attribute_OffsetAttribute"><path d="M923.816,85.283 C898.238,108.408 866.03,137.528 844.008,157.438 " fill="none" id="Attribute-backto-OffsetAttribute" style="stroke:#181818;stroke-width:1.0;"/><polygon fill="none" points="919.204,80.016,938.734,71.795,928.593,90.401,919.204,80.016" style="stroke:#181818;stroke-width:1.0;"/></g><g id="link_Attribute_PositionLengthAttribute"><path d="M981.091,90.615 C989.811,112.751 1000.164,139.031 1007.41,157.438 " fill="none" id="Attribute-backto-PositionLengthAttribute" style="stroke:#181818;stroke-width:1.0;"/><polygon fill="none" points="974.495,92.969,973.677,71.795,987.52,87.838,974.495,92.969" style="stroke:#181818;stroke-width:1.0;"/></g><g id="link_Attribute_PayloadAttribute"><path d="M1017.05,82.055 C1020.56,84.109 1024.07,86.108 1027.5,88 C1074.04,113.636 1128.81,139.494 1168.09,157.327 " fill="none" id="Attribute-backto-PayloadAttribute" style="stroke:#181818;stroke-width:1.0;"/><polygon fill="none" points="1013.21,87.915,999.73,71.566,1020.46,75.941,1013.21,87.915" style="stroke:#181818;stroke-width:1.0;"/></g><g id="link_Attribute_PositionIncrementAttribute"><path d="M1014.17,81.787 C1018.58,84.08 1023.06,86.193 1027.5,88 C1146.27,136.34 1184.62,119.89 1309.5,149 C1320.92,151.662 1332.9,154.542 1344.74,157.442 " fill="none" id="Attribute-backto-PositionIncrementAttribute" style="stroke:#181818;stroke-width:1.0;"/><polygon fill="none" points="1010.5,87.747,996.69,71.673,1017.51,75.628,1010.5,87.747" style="stroke:#181818;stroke-width:1.0;"/></g><g id="link_AttributeSource_TokenStream"><path d="M403.85,92.766 C381.733,111.362 356.534,132.548 336.44,149.442 " fill="none" id="AttributeSource-backto-TokenStream" style="stroke:#181818;stroke-width:1.0;"/><polygon fill="none" points="399.48,87.295,419.293,79.782,408.49,98.011,399.48,87.295" style="stroke:#181818;stroke-width:1.0;"/></g><g id="link_TokenStream_Tokenizer"><path d="M267.289,230.428 C257.266,245.343 246.48,261.391 237.438,274.846 " fill="none" id="TokenStream-backto-Tokenizer" style="stroke:#181818;stroke-width:1.0;"/><polygon fill="none" points="261.59,226.359,278.556,213.664,273.209,234.168,261.59,226.359" style="stroke:#181818;stroke-width:1.0;"/></g><g id="link_Tokenizer_CharTokenizer"><path d="M163.392,352.009 C142.317,369.473 118.956,388.832 101.3316,403.437 " fill="none" id="Tokenizer-backto-CharTokenizer" style="stroke:#181818;stroke-width:1.0;"/><polygon fill="none" points="159.062,346.506,178.928,339.134,167.995,357.286,159.062,346.506" style="stroke:#181818;stroke-width:1.0;"/></g><g id="link_TokenStream_TokenFilter"><path d="M370.043,223.595 C398.82,240.359 431.538,259.419 458.255,274.982 " fill="none" id="TokenStream-backto-TokenFilter" style="stroke:#181818;stroke-width:1.0;"/><polygon fill="none" points="366.481,229.621,352.723,213.505,373.528,217.524,366.481,229.621" style="stroke:#181818;stroke-width:1.0;"/></g><g id="link_TokenFilter_LengthFilter"><path d="M452.736,350.984 C428.501,368.712 401.387,388.546 381.03,403.437 " fill="none" id="TokenFilter-backto-LengthFilter" style="stroke:#181818;stroke-width:1.0;"/><polygon fill="none" points="448.661,345.293,468.936,339.134,456.927,356.592,448.661,345.293" style="stroke:#181818;stroke-width:1.0;"/></g><g id="link_TokenFilter_LowerCaseFilter"><path d="M511.5,359.29 C511.5,374.698 511.5,390.837 511.5,403.437 " fill="none" id="TokenFilter-backto-LowerCaseFilter" style="stroke:#181818;stroke-width:1.0;"/><polygon fill="none" points="504.5,359.135,511.5,339.134,518.5,359.134,504.5,359.135" style="stroke:#181818;stroke-width:1.0;"/></g><g id="link_TokenFilter_FilteringTokenFilter"><path d="M577.722,349.964 C606.101,367.947 638.154,388.259 662.105,403.437 " fill="none" id="TokenFilter-backto-FilteringTokenFilter" style="stroke:#181818;stroke-width:1.0;"/><polygon fill="none" points="573.779,355.753,560.632,339.134,581.273,343.927,573.779,355.753" style="stroke:#181818;stroke-width:1.0;"/></g><g id="link_FilteringTokenFilter_StopFilter"><path d="M698.5,471.8943 C698.5,486.8985 698.5,503.127 698.5,515.8661 " fill="none" id="FilteringTokenFilter-backto-StopFilter" style="stroke:#181818;stroke-width:1.0;"/><polygon fill="none" points="691.5,471.6645,698.5,451.664,705.5,471.6644,691.5,471.6645" style="stroke:#181818;stroke-width:1.0;"/></g><g id="link_TokenFilter_N1"><path codeLine="44" d="M609.221,339.103 C664.526,356.79 734.94,379.446 797.5,400 C803.272,401.896 809.277,403.884 815.282,405.882 " fill="none" id="TokenFilter-N1" style="stroke:#181818;stroke-width:1.0;stroke-dasharray:7.0,7.0;"/></g></g></svg>